<svg width="140" height="140" viewBox="0 0 140 140" fill="none" xmlns="http://www.w3.org/2000/svg">
<path d="M70 140C31.3401 140 -9.99489e-06 108.66 -8.30501e-06 70C-6.61513e-06 31.3401 31.3401 -4.74968e-06 70 -3.0598e-06C108.66 -1.36992e-06 140 31.3401 140 70C140 108.66 108.66 140 70 140Z" fill="#FFEBEB"/>
<path d="M70 115C45.1472 115 25 94.8528 25 70C25 45.1472 45.1472 25 70 25C94.8528 25 115 45.1472 115 70C115 94.8528 94.8528 115 70 115Z" fill="#FF9696"/>
<path d="M14.5008 53.5248C13.6838 53.2562 13.4852 52.6436 13.8537 51.5226C14.2784 50.2306 14.9345 49.8357 16.0175 50.1917L17.2728 46.3728C14.3468 45.411 12.537 46.6897 11.2317 50.6607C9.93261 54.6127 10.7005 56.7598 13.7785 57.7716C18.5284 59.333 19.5642 51.3786 22.0912 52.2093C22.9271 52.4841 23.0818 53.1665 22.6696 54.4205C22.2074 55.8265 21.5326 56.2784 20.4496 55.9224L19.188 59.7603C22.1139 60.7221 23.9488 59.3674 25.2916 55.2824C26.6406 51.1784 25.8852 48.9933 22.8072 47.9815C17.6583 46.2889 16.4388 54.1618 14.5008 53.5248Z" fill="black"/>
<path d="M21.942 31.1929L15.1389 41.4643L17.7901 43.2202L19.9547 39.9521L28.9755 45.9268L31.4494 42.1918L22.4286 36.217L24.5932 32.9489L21.942 31.1929Z" fill="black"/>
<path d="M30.147 22.5968C26.1023 25.9908 25.7828 29.157 29.1125 33.1251C32.4422 37.0931 35.6158 37.3281 39.6605 33.9341C43.7204 30.5272 44.0246 27.3739 40.6949 23.4059C37.3652 19.4378 34.2069 19.19 30.147 22.5968ZM32.1911 25.0328C33.7232 23.7472 35.2047 24.1749 37.0946 26.427C38.9844 28.6792 39.1484 30.2125 37.6164 31.4981C36.0996 32.7709 34.618 32.3432 32.7282 30.091C30.8383 27.8389 30.6743 26.3056 32.1911 25.0328Z" fill="black"/>
<path d="M49.3219 21.6945L53.7514 25.2285L58.0937 23.43L53.0632 19.6471C54.5507 18.2733 54.7388 16.6368 54.0424 14.9553C53.1393 12.7749 50.7593 11.3145 46.9529 12.891L40.7443 15.4625L46.1016 28.397L50.2406 26.6826L48.3426 22.1001L49.3219 21.6945ZM47.305 19.5426L46.0345 16.4752L47.9008 15.7023C48.8062 15.3273 49.5851 15.8489 49.9218 16.6619C50.2586 17.475 50.0766 18.3946 49.1712 18.7696L47.305 19.5426Z" fill="black"/>
<path d="M67.8517 11.1552L67.4763 8.21915L56.9619 9.56339L58.7373 23.4504L69.2517 22.1061L68.8764 19.17L62.8058 19.9461L62.4583 17.2282L67.7353 16.5536L67.3574 13.5976L62.0804 14.2723L61.7811 11.9314L67.8517 11.1552Z" fill="black"/>
<path d="M87.6515 13.7349L88.2505 10.8362L77.8697 8.69131L75.0369 22.4017L79.4242 23.3082L80.5776 17.7261L85.7875 18.8026L86.3905 15.8842L81.1806 14.8078L81.6581 12.4966L87.6515 13.7349Z" fill="black"/>
<path d="M92.6104 22.4948L92.8654 28.1555L97.0775 30.2408L96.6144 23.9637C98.6277 24.1793 99.9835 23.2437 100.791 21.6127C101.838 19.4977 101.371 16.7447 97.6787 14.9167L91.6563 11.9353L85.4449 24.4819L89.4599 26.4696L91.6605 22.0245L92.6104 22.4948ZM92.9029 19.5599L94.3759 16.5845L96.1862 17.4807C97.0645 17.9155 97.1844 18.8453 96.794 19.6339C96.4036 20.4225 95.5915 20.8909 94.7132 20.4561L92.9029 19.5599Z" fill="black"/>
<path d="M112.402 24.7156C108.575 21.0782 105.393 21.1168 101.825 24.8715C98.2561 28.6263 98.3794 31.8062 102.207 35.4435C106.048 39.0947 109.216 39.0424 112.784 35.2876C116.353 31.5329 116.244 28.3668 112.402 24.7156ZM110.212 27.0207C111.661 28.3985 111.403 29.9187 109.378 32.0498C107.352 34.1809 105.847 34.5163 104.397 33.1385C102.962 31.7745 103.221 30.2542 105.246 28.1231C107.271 25.992 108.776 25.6567 110.212 27.0207Z" fill="black"/>
<path d="M125.036 42.1802L117.42 46.3447L123.212 38.8461L120.756 34.3539L108.472 41.0708L110.507 44.7909L118.122 40.6264L112.33 48.125L114.786 52.6172L127.07 45.9003L125.036 42.1802Z" fill="black"/>
<path d="M131.363 62.189L128.732 50.1532L125.626 50.8322L126.463 54.6618L115.892 56.9723L116.849 61.349L127.419 59.0385L128.257 62.8681L131.363 62.189Z" fill="black"/>
<path d="M112.682 110.28C113.315 110.861 113.244 111.501 112.446 112.371C111.526 113.373 110.766 113.462 109.926 112.691L107.208 115.653C109.477 117.736 111.653 117.317 114.479 114.237C117.292 111.172 117.478 108.899 115.09 106.708C111.406 103.328 107.184 110.148 105.224 108.349C104.576 107.754 104.716 107.069 105.608 106.096C106.609 105.006 107.41 104.872 108.25 105.643L110.982 102.667C108.712 100.584 106.482 101.062 103.575 104.23C100.654 107.413 100.442 109.716 102.829 111.906C106.822 115.571 111.179 108.901 112.682 110.28Z" fill="black"/>
<path d="M98.4259 126.005L95.8313 121.848L99.021 119.857L101.616 124.014L105.416 121.642L98.0029 109.766L94.2025 112.138L97.3371 117.16L94.1475 119.151L91.0128 114.129L87.2124 116.501L94.6255 128.377L98.4259 126.005Z" fill="black"/>
<path d="M82.1743 132.062C87.2689 130.675 88.8856 127.934 87.5248 122.936C86.1641 117.938 83.381 116.395 78.2864 117.782C73.1726 119.174 71.5751 121.91 72.9359 126.908C74.2966 131.906 77.0604 133.454 82.1743 132.062ZM81.3389 128.994C79.4092 129.519 78.2431 128.51 77.4708 125.673C76.6985 122.837 77.192 121.376 79.1218 120.85C81.0322 120.33 82.1983 121.339 82.9706 124.176C83.7429 127.013 83.2494 128.474 81.3389 128.994Z" fill="black"/>
<path d="M56.9606 127.533C56.8604 129.891 58.4029 132.218 62.5192 132.393L69.0733 132.672L69.6679 118.685L65.1919 118.494L64.9906 123.23L62.9125 123.142C58.7962 122.967 57.0617 125.155 56.9606 127.533ZM61.4366 127.723C61.4739 126.844 62.0466 126.088 63.0257 126.129L64.864 126.207L64.723 129.524L62.8847 129.446C61.9056 129.405 61.3992 128.602 61.4366 127.723Z" fill="black"/>
<path d="M52.8053 130.023L57.68 116.899L53.4804 115.339L48.6056 128.463L52.8053 130.023Z" fill="black"/>
<path d="M35.5414 118.549L34.0908 121.129L43.3306 126.324L50.1917 114.12L46.2865 111.925L43.4931 116.893L38.8558 114.286L37.3953 116.884L42.0327 119.491L40.8761 121.548L35.5414 118.549Z" fill="black"/>
<path d="M32.7405 106.705L23.1105 109.672L26.4669 112.962L31.2583 111.245L29.6518 116.084L33.1653 119.528L35.7826 109.687L39.3808 106.016L36.3386 103.034L32.7405 106.705Z" fill="black"/>
</svg>
