<svg xmlns="http://www.w3.org/2000/svg" width="156" height="44" fill="none" viewBox="0 0 156 44"><path fill="#fff" d="M0.26 19.4V5.4H5C6.06667 5.4 6.94667 5.58667 7.64 5.96C8.33333 6.32 8.84667 6.82 9.18 7.46C9.51333 8.1 9.68 8.83333 9.68 9.66C9.68 10.4867 9.51333 11.22 9.18 11.86C8.84667 12.5 8.33333 13.0067 7.64 13.38C6.94667 13.74 6.06667 13.92 5 13.92H2.38V19.4H0.26ZM2.38 12.02H4.9C5.80667 12.02 6.46667 11.8067 6.88 11.38C7.30667 10.9533 7.52 10.38 7.52 9.66C7.52 8.95333 7.30667 8.38667 6.88 7.96C6.46667 7.52 5.80667 7.3 4.9 7.3H2.38V12.02Z"/><path fill="#fff" d="M14.2322 19.64C13.4455 19.64 12.7855 19.5067 12.2522 19.24C11.7189 18.96 11.3189 18.5933 11.0522 18.14C10.7855 17.6733 10.6522 17.1667 10.6522 16.62C10.6522 15.6467 11.0055 14.8867 11.7122 14.34C12.4322 13.7933 13.4455 13.52 14.7522 13.52H17.3122V13.3C17.3122 11.8067 16.6189 11.06 15.2322 11.06C14.6589 11.06 14.1722 11.1867 13.7722 11.44C13.3855 11.68 13.1255 12.0733 12.9922 12.62H10.8722C10.9789 11.58 11.4255 10.76 12.2122 10.16C13.0122 9.54667 14.0189 9.24 15.2322 9.24C16.6989 9.24 17.7655 9.6 18.4322 10.32C19.0989 11.04 19.4322 12.0333 19.4322 13.3V19.4H17.6322L17.4522 17.94H17.3122C17.0189 18.4067 16.6522 18.8067 16.2122 19.14C15.7722 19.4733 15.1122 19.64 14.2322 19.64ZM14.6322 17.86C15.4989 17.86 16.1455 17.6 16.5722 17.08C17.0122 16.5467 17.2522 15.8733 17.2922 15.06H14.9722C14.2122 15.06 13.6722 15.1867 13.3522 15.44C13.0455 15.68 12.8922 16.02 12.8922 16.46C12.8922 16.9 13.0455 17.2467 13.3522 17.5C13.6722 17.74 14.0989 17.86 14.6322 17.86Z"/><path fill="#fff" d="M24.8844 19.64C24.0577 19.64 23.3177 19.4467 22.6644 19.06C22.011 18.66 21.491 18.0733 21.1044 17.3C20.731 16.5267 20.5444 15.5733 20.5444 14.44C20.5444 13.3067 20.7377 12.3533 21.1244 11.58C21.511 10.8067 22.031 10.2267 22.6844 9.84C23.351 9.44 24.091 9.24 24.9044 9.24C25.6644 9.24 26.291 9.38667 26.7844 9.68C27.2777 9.96 27.6444 10.32 27.8844 10.76V5H30.0044V19.4H28.1844L28.0044 17.94H27.8844C27.6177 18.46 27.2377 18.8733 26.7444 19.18C26.2644 19.4867 25.6444 19.64 24.8844 19.64ZM25.3244 17.62C26.0844 17.62 26.711 17.3533 27.2044 16.82C27.711 16.2867 27.9644 15.4933 27.9644 14.44C27.9644 13.3733 27.711 12.58 27.2044 12.06C26.711 11.5267 26.0844 11.26 25.3244 11.26C24.5644 11.26 23.931 11.5267 23.4244 12.06C22.931 12.5933 22.6844 13.3933 22.6844 14.46C22.6844 15.5133 22.931 16.3067 23.4244 16.84C23.931 17.36 24.5644 17.62 25.3244 17.62Z"/><path fill="#fff" d="M34.8166 19.64C34.0299 19.64 33.3699 19.5067 32.8366 19.24C32.3032 18.96 31.9032 18.5933 31.6366 18.14C31.3699 17.6733 31.2366 17.1667 31.2366 16.62C31.2366 15.6467 31.5899 14.8867 32.2966 14.34C33.0166 13.7933 34.0299 13.52 35.3366 13.52H37.8966V13.3C37.8966 11.8067 37.2032 11.06 35.8166 11.06C35.2432 11.06 34.7566 11.1867 34.3566 11.44C33.9699 11.68 33.7099 12.0733 33.5766 12.62H31.4566C31.5632 11.58 32.0099 10.76 32.7966 10.16C33.5966 9.54667 34.6032 9.24 35.8166 9.24C37.2832 9.24 38.3499 9.6 39.0166 10.32C39.6832 11.04 40.0166 12.0333 40.0166 13.3V19.4H38.2166L38.0366 17.94H37.8966C37.6032 18.4067 37.2366 18.8067 36.7966 19.14C36.3566 19.4733 35.6966 19.64 34.8166 19.64ZM35.2166 17.86C36.0832 17.86 36.7299 17.6 37.1566 17.08C37.5966 16.5467 37.8366 15.8733 37.8766 15.06H35.5566C34.7966 15.06 34.2566 15.1867 33.9366 15.44C33.6299 15.68 33.4766 16.02 33.4766 16.46C33.4766 16.9 33.6299 17.2467 33.9366 17.5C34.2566 17.74 34.6832 17.86 35.2166 17.86Z"/><path fill="#fff" d="M40.5088 19.4V9.48H42.2687L42.4487 10.64H42.5488C42.7221 10.2267 42.9888 9.89333 43.3488 9.64C43.7088 9.37333 44.1354 9.24 44.6287 9.24C45.1088 9.24 45.5288 9.36 45.8888 9.6C46.2488 9.84 46.5154 10.1867 46.6888 10.64H46.7688C46.9421 10.24 47.2154 9.90667 47.5888 9.64C47.9621 9.37333 48.4221 9.24 48.9688 9.24C49.7021 9.24 50.2554 9.48 50.6287 9.96C51.0154 10.44 51.2088 11.1133 51.2088 11.98V19.4H49.1688V12.4C49.1688 12 49.0821 11.6867 48.9088 11.46C48.7488 11.22 48.4887 11.1 48.1287 11.1C47.7687 11.1 47.4688 11.24 47.2288 11.52C47.0021 11.8 46.8888 12.1933 46.8888 12.7V19.4H44.8288V12.4C44.8288 12 44.7488 11.6867 44.5888 11.46C44.4288 11.22 44.1688 11.1 43.8088 11.1C43.4488 11.1 43.1488 11.24 42.9088 11.52C42.6688 11.8 42.5488 12.1933 42.5488 12.7V19.4H40.5088Z"/><path fill="#fff" d="M4.98 38.64C3.99333 38.64 3.12667 38.46 2.38 38.1C1.64667 37.74 1.06667 37.2267 0.64 36.56C0.226667 35.8933 0.0133334 35.1 0 34.18H2.24C2.25333 34.8867 2.49333 35.4933 2.96 36C3.44 36.4933 4.10667 36.74 4.96 36.74C5.74667 36.74 6.36 36.56 6.8 36.2C7.24 35.8267 7.46 35.3467 7.46 34.76C7.46 34.2667 7.32667 33.86 7.06 33.54C6.80667 33.2067 6.40667 32.9133 5.86 32.66C5.31333 32.3933 4.60667 32.12 3.74 31.84C2.58 31.4667 1.72667 30.9533 1.18 30.3C0.633333 29.6333 0.36 28.82 0.36 27.86C0.36 26.7533 0.76 25.86 1.56 25.18C2.36 24.5 3.46 24.16 4.86 24.16C6.22 24.16 7.31333 24.5133 8.14 25.22C8.96667 25.9133 9.39333 26.88 9.42 28.12H7.16C7.16 27.7867 7.06667 27.4667 6.88 27.16C6.69333 26.84 6.42667 26.58 6.08 26.38C5.73333 26.1667 5.30667 26.06 4.8 26.06C4.17333 26.0467 3.64667 26.2 3.22 26.52C2.79333 26.8267 2.58 27.2467 2.58 27.78C2.58 28.4333 2.84 28.9467 3.36 29.32C3.88 29.68 4.72667 30.0533 5.9 30.44C6.63333 30.68 7.28 30.9733 7.84 31.32C8.41333 31.6533 8.86 32.0867 9.18 32.62C9.51333 33.14 9.68 33.8067 9.68 34.62C9.68 35.3667 9.49333 36.0467 9.12 36.66C8.74667 37.26 8.20667 37.74 7.5 38.1C6.80667 38.46 5.96667 38.64 4.98 38.64Z"/><path fill="#fff" d="M14.7522 38.64C13.7922 38.64 12.9455 38.4267 12.2122 38C11.4789 37.56 10.9055 36.9533 10.4922 36.18C10.0789 35.4067 9.87219 34.5067 9.87219 33.48C9.87219 32.44 10.0722 31.5267 10.4722 30.74C10.8855 29.9533 11.4589 29.34 12.1922 28.9C12.9389 28.46 13.7989 28.24 14.7722 28.24C15.7322 28.24 16.5589 28.46 17.2522 28.9C17.9455 29.3267 18.4789 29.9 18.8522 30.62C19.2389 31.34 19.4322 32.1333 19.4322 33C19.4322 33.1333 19.4322 33.28 19.4322 33.44C19.4322 33.5867 19.4255 33.7533 19.4122 33.94H11.9522C12.0189 34.86 12.3189 35.56 12.8522 36.04C13.3855 36.5067 14.0122 36.74 14.7322 36.74C15.3589 36.74 15.8522 36.6133 16.2122 36.36C16.5855 36.0933 16.8589 35.7333 17.0322 35.28H19.1722C18.9322 36.2267 18.4322 37.0267 17.6722 37.68C16.9122 38.32 15.9389 38.64 14.7522 38.64ZM14.7522 30.08C14.0989 30.08 13.5189 30.28 13.0122 30.68C12.5055 31.0667 12.1789 31.6133 12.0322 32.32H17.3122C17.2589 31.6533 16.9989 31.1133 16.5322 30.7C16.0655 30.2867 15.4722 30.08 14.7522 30.08Z"/><path fill="#fff" d="M25.5044 38.4C24.531 38.4 23.7577 38.1667 23.1844 37.7C22.611 37.22 22.3244 36.3733 22.3244 35.16V30.28H19.8244V28.48H21.3044C21.9844 28.48 22.3844 28.1467 22.5044 27.48L22.8044 25.88H24.4444V28.48H28.3644V30.28H24.4444V35.12C24.4444 35.64 24.5577 36.0067 24.7844 36.22C25.0244 36.42 25.431 36.52 26.0044 36.52H28.3244V38.4H25.5044Z"/><path fill="#fff" d="M29.6766 38.4V24H31.7966V29.96C32.0632 29.4667 32.4899 29.06 33.0766 28.74C33.6632 28.4067 34.3232 28.24 35.0566 28.24C36.2832 28.24 37.2166 28.6133 37.8566 29.36C38.4966 30.0933 38.8166 31.1533 38.8166 32.54V38.4H36.6966V32.84C36.6966 32.0133 36.4966 31.3733 36.0966 30.92C35.6966 30.4667 35.1432 30.24 34.4366 30.24C33.7032 30.24 33.0766 30.4867 32.5566 30.98C32.0499 31.4733 31.7966 32.1867 31.7966 33.12V38.4H29.6766Z"/><path fill="#fff" d="M43.8088 26.96C43.3421 26.96 42.9488 26.8133 42.6287 26.52C42.3221 26.2133 42.1688 25.84 42.1688 25.4C42.1688 24.96 42.3221 24.5933 42.6287 24.3C42.9488 24.0067 43.3421 23.86 43.8088 23.86C44.2887 23.86 44.6821 24.0067 44.9888 24.3C45.3088 24.5933 45.4688 24.96 45.4688 25.4C45.4688 25.84 45.3088 26.2133 44.9888 26.52C44.6821 26.8133 44.2887 26.96 43.8088 26.96ZM39.8288 38.4V36.56H42.9487V30.98C42.9487 30.54 42.7354 30.32 42.3088 30.32H40.1087V28.48H42.6888C43.5154 28.48 44.1154 28.6733 44.4888 29.06C44.8754 29.4333 45.0688 30.0333 45.0688 30.86V36.56H48.1888V38.4H39.8288Z"/><path fill="#fff" d="M52.9009 38.64C52.1143 38.64 51.4543 38.5067 50.9209 38.24C50.3876 37.96 49.9876 37.5933 49.7209 37.14C49.4543 36.6733 49.3209 36.1667 49.3209 35.62C49.3209 34.6467 49.6743 33.8867 50.3809 33.34C51.1009 32.7933 52.1143 32.52 53.4209 32.52H55.9809V32.3C55.9809 30.8067 55.2876 30.06 53.9009 30.06C53.3276 30.06 52.8409 30.1867 52.4409 30.44C52.0543 30.68 51.7943 31.0733 51.6609 31.62H49.5409C49.6476 30.58 50.0943 29.76 50.8809 29.16C51.6809 28.5467 52.6876 28.24 53.9009 28.24C55.3676 28.24 56.4343 28.6 57.1009 29.32C57.7676 30.04 58.1009 31.0333 58.1009 32.3V38.4H56.3009L56.1209 36.94H55.9809C55.6876 37.4067 55.3209 37.8067 54.8809 38.14C54.4409 38.4733 53.7809 38.64 52.9009 38.64ZM53.3009 36.86C54.1676 36.86 54.8143 36.6 55.2409 36.08C55.6809 35.5467 55.9209 34.8733 55.9609 34.06H53.6409C52.8809 34.06 52.3409 34.1867 52.0209 34.44C51.7143 34.68 51.5609 35.02 51.5609 35.46C51.5609 35.9 51.7143 36.2467 52.0209 36.5C52.3409 36.74 52.7676 36.86 53.3009 36.86Z"/><path fill="#fff" d="M89.201 13.24V27.4H84.761V21.88H80.541V27.4H76.101V13.24H80.541V18.34H84.761V13.24H89.201Z"/><path fill="#fff" d="M95.2386 13.24V27.4H90.7986V13.24H95.2386Z"/><path fill="#fff" d="M105.524 18.08C105.351 17.8 105.104 17.5867 104.784 17.44C104.464 17.28 104.077 17.2 103.624 17.2C102.771 17.2 102.111 17.48 101.644 18.04C101.177 18.5867 100.944 19.34 100.944 20.3C100.944 21.4067 101.204 22.2333 101.724 22.78C102.244 23.3267 103.044 23.6 104.124 23.6C105.151 23.6 105.977 23.1867 106.604 22.36H103.064V19.22H110.284V23.66C109.671 24.7133 108.824 25.62 107.744 26.38C106.664 27.1267 105.297 27.5 103.644 27.5C102.177 27.5 100.897 27.2 99.8039 26.6C98.7239 25.9867 97.8906 25.1333 97.3039 24.04C96.7306 22.9467 96.4439 21.7 96.4439 20.3C96.4439 18.9 96.7306 17.6533 97.3039 16.56C97.8906 15.4667 98.7239 14.62 99.8039 14.02C100.884 13.4067 102.151 13.1 103.604 13.1C105.457 13.1 106.964 13.5467 108.124 14.44C109.297 15.3333 109.991 16.5467 110.204 18.08H105.524Z"/><path fill="#fff" d="M124.583 13.24V27.4H120.143V21.88H115.923V27.4H111.483V13.24H115.923V18.34H120.143V13.24H124.583Z"/><path fill="#fff" d="M133.081 27.54C131.747 27.54 130.521 27.2267 129.401 26.6C128.294 25.9733 127.414 25.1067 126.761 24C126.107 22.8933 125.781 21.6467 125.781 20.26C125.781 18.8733 126.107 17.6267 126.761 16.52C127.414 15.4133 128.294 14.5533 129.401 13.94C130.521 13.3133 131.747 13 133.081 13C134.414 13 135.634 13.3133 136.741 13.94C137.847 14.5533 138.721 15.4133 139.361 16.52C140.014 17.6267 140.341 18.8733 140.341 20.26C140.341 21.6467 140.014 22.8933 139.361 24C138.721 25.1067 137.841 25.9733 136.721 26.6C135.614 27.2267 134.401 27.54 133.081 27.54ZM133.081 23.4C133.961 23.4 134.641 23.12 135.121 22.56C135.601 21.9867 135.841 21.22 135.841 20.26C135.841 19.2867 135.601 18.52 135.121 17.96C134.641 17.3867 133.961 17.1 133.081 17.1C132.187 17.1 131.501 17.3867 131.021 17.96C130.541 18.52 130.301 19.2867 130.301 20.26C130.301 21.22 130.541 21.9867 131.021 22.56C131.501 23.12 132.187 23.4 133.081 23.4Z"/><path fill="#fff" d="M155.122 27.4H150.682L145.982 20.28V27.4H141.542V13.24H145.982L150.682 20.48V13.24H155.122V27.4Z"/><path fill="#fff" d="M100.101 5.5C100.101 8.53757 97.6385 11 94.601 11C91.5634 11 89.101 8.53757 89.101 5.5C89.101 2.46243 91.5634 0 94.601 0C97.6385 0 100.101 2.46243 100.101 5.5Z"/><path fill="#fff" d="M113.101 5.5C113.101 8.53757 110.639 11 107.601 11C104.563 11 102.101 8.53757 102.101 5.5C102.101 2.46243 104.563 0 107.601 0C110.639 0 113.101 2.46243 113.101 5.5Z"/><path fill="#fff" d="M87.101 5.5C87.101 8.53757 84.6385 11 81.601 11C78.5634 11 76.101 8.53757 76.101 5.5C76.101 2.46243 78.5634 0 81.601 0C84.6385 0 87.101 2.46243 87.101 5.5Z"/><path fill="#fff" d="M76.101 36.3C76.101 34.9 76.381 33.6533 76.941 32.56C77.5143 31.4667 78.3276 30.62 79.381 30.02C80.4343 29.4067 81.6743 29.1 83.101 29.1C84.3276 29.1 85.421 29.3333 86.381 29.8C87.3543 30.2533 88.141 30.9 88.741 31.74C89.3543 32.58 89.761 33.56 89.961 34.68H85.281C85.0676 34.2133 84.761 33.8533 84.361 33.6C83.9743 33.3333 83.5276 33.2 83.021 33.2C82.2743 33.2 81.681 33.48 81.241 34.04C80.8143 34.6 80.601 35.3533 80.601 36.3C80.601 37.2467 80.8143 38 81.241 38.56C81.681 39.12 82.2743 39.4 83.021 39.4C83.5276 39.4 83.9743 39.2733 84.361 39.02C84.761 38.7533 85.0676 38.3867 85.281 37.92H89.961C89.761 39.04 89.3543 40.02 88.741 40.86C88.141 41.7 87.3543 42.3533 86.381 42.82C85.421 43.2733 84.3276 43.5 83.101 43.5C81.6743 43.5 80.4343 43.2 79.381 42.6C78.3276 41.9867 77.5143 41.1333 76.941 40.04C76.381 38.9467 76.101 37.7 76.101 36.3Z"/><path fill="#fff" d="M100.24 41.26H95.5195L94.8195 43.4H90.1595L95.3395 29.24H100.46L105.62 43.4H100.94L100.24 41.26ZM99.1595 37.92L97.8795 33.98L96.5995 37.92H99.1595Z"/><path fill="#fff" d="M113.348 43.4L110.688 38.32H110.668V43.4H106.228V29.24H112.828C113.975 29.24 114.955 29.4467 115.768 29.86C116.582 30.26 117.188 30.8133 117.588 31.52C118.002 32.2133 118.208 33 118.208 33.88C118.208 34.8267 117.942 35.6667 117.408 36.4C116.888 37.1333 116.135 37.66 115.148 37.98L118.228 43.4H113.348ZM110.668 35.36H112.428C112.855 35.36 113.175 35.2667 113.388 35.08C113.602 34.88 113.708 34.5733 113.708 34.16C113.708 33.7867 113.595 33.4933 113.368 33.28C113.155 33.0667 112.842 32.96 112.428 32.96H110.668V35.36Z"/><path fill="#fff" d="M128.707 36.14C129.56 36.34 130.22 36.7533 130.687 37.38C131.167 37.9933 131.407 38.7067 131.407 39.52C131.407 40.76 130.993 41.72 130.167 42.4C129.353 43.0667 128.18 43.4 126.647 43.4H119.227V29.24H126.447C127.887 29.24 129.02 29.5533 129.847 30.18C130.673 30.8067 131.087 31.72 131.087 32.92C131.087 33.7467 130.867 34.4467 130.427 35.02C130 35.58 129.427 35.9533 128.707 36.14ZM123.667 34.76H125.387C125.787 34.76 126.08 34.68 126.267 34.52C126.467 34.36 126.567 34.1133 126.567 33.78C126.567 33.4333 126.467 33.18 126.267 33.02C126.08 32.8467 125.787 32.76 125.387 32.76H123.667V34.76ZM125.687 39.84C126.087 39.84 126.38 39.7667 126.567 39.62C126.767 39.46 126.867 39.2067 126.867 38.86C126.867 38.18 126.473 37.84 125.687 37.84H123.667V39.84H125.687Z"/><path fill="#fff" d="M138.039 43.54C136.345 43.54 134.945 43.1467 133.839 42.36C132.745 41.56 132.152 40.3933 132.059 38.86H136.779C136.845 39.6733 137.205 40.08 137.859 40.08C138.099 40.08 138.299 40.0267 138.459 39.92C138.632 39.8 138.719 39.62 138.719 39.38C138.719 39.0467 138.539 38.78 138.179 38.58C137.819 38.3667 137.259 38.1267 136.499 37.86C135.592 37.54 134.839 37.2267 134.239 36.92C133.652 36.6133 133.145 36.1667 132.719 35.58C132.292 34.9933 132.085 34.24 132.099 33.32C132.099 32.4 132.332 31.62 132.799 30.98C133.279 30.3267 133.925 29.8333 134.739 29.5C135.565 29.1667 136.492 29 137.519 29C139.252 29 140.625 29.4 141.639 30.2C142.665 31 143.205 32.1267 143.259 33.58H138.479C138.465 33.18 138.365 32.8933 138.179 32.72C137.992 32.5467 137.765 32.46 137.499 32.46C137.312 32.46 137.159 32.5267 137.039 32.66C136.919 32.78 136.859 32.9533 136.859 33.18C136.859 33.5 137.032 33.7667 137.379 33.98C137.739 34.18 138.305 34.4267 139.079 34.72C139.972 35.0533 140.705 35.3733 141.279 35.68C141.865 35.9867 142.372 36.4133 142.799 36.96C143.225 37.5067 143.439 38.1933 143.439 39.02C143.439 39.8867 143.225 40.6667 142.799 41.36C142.372 42.04 141.752 42.5733 140.939 42.96C140.125 43.3467 139.159 43.54 138.039 43.54Z"/><line x1="66.851" x2="66.851" y1="38" y2="6" stroke="#fff" stroke-width=".5"/></svg>