<svg width="92" height="107" viewBox="0 0 92 107" fill="none" xmlns="http://www.w3.org/2000/svg">
<path fill-rule="evenodd" clip-rule="evenodd" d="M71.8204 25.8158C71.9246 40.0734 60.4511 51.7161 46.1934 51.8204C31.9358 51.9247 20.2931 40.4511 20.1888 26.1934C20.0845 11.9358 31.5581 0.293144 45.8158 0.188856C60.0734 0.0845679 71.7161 11.5581 71.8204 25.8158ZM53.474 15.5567L53.4959 18.5464L56.4854 18.5245C57.9803 18.5136 65.4764 21.4486 65.5092 25.9331C65.542 30.4177 58.0896 33.462 56.5947 33.473L53.6051 33.4948L53.627 36.4845C53.6379 37.9794 50.7029 45.4755 46.2184 45.5083C41.7338 45.5411 38.6895 38.0887 38.6785 36.5939L38.6567 33.6042L35.6668 33.6261C34.172 33.637 26.6759 30.702 26.6431 26.2174C26.6103 21.7329 34.0627 18.6885 35.5575 18.6776L38.5474 18.6557L38.5255 15.666C38.5146 14.1712 41.4496 6.67507 45.9342 6.64227C50.4187 6.60947 53.4631 14.0618 53.474 15.5567Z" fill="#A41E16"/>
<path d="M1.21621 106.009C1.11855 105.99 1.06973 105.921 1.06973 105.804C1.06973 105.628 1.29922 105.511 1.7582 105.453C2.81289 105.296 3.34023 104.74 3.34023 103.783V96.0336C3.34023 95.6235 3.11562 95.3403 2.6664 95.184C2.47109 95.1157 2.26113 95.062 2.03652 95.0229C1.81191 94.9741 1.63125 94.9301 1.49453 94.8911C1.36758 94.852 1.28457 94.8178 1.24551 94.7885C1.21621 94.7495 1.20156 94.6762 1.20156 94.5688C1.20156 94.4516 1.2748 94.3539 1.42129 94.2758L5.15664 92.518C5.27383 92.4594 5.34707 92.4301 5.37637 92.4301C5.54238 92.4301 5.62539 92.5473 5.62539 92.7817V103.783C5.62539 104.74 6.15273 105.296 7.20742 105.453C7.6664 105.511 7.8959 105.614 7.8959 105.76C7.8959 105.907 7.84707 105.99 7.74941 106.009H1.21621ZM4.26308 88.3139C3.86269 88.3139 3.50625 88.187 3.19375 87.933C2.89101 87.6791 2.73965 87.3276 2.73965 86.8784C2.73965 86.4194 2.88613 86.058 3.1791 85.7944C3.47207 85.5307 3.81875 85.3989 4.21914 85.3989C4.6293 85.3989 4.97109 85.5551 5.24453 85.8676C5.52773 86.1801 5.66933 86.517 5.66933 86.8784C5.66933 87.2397 5.5375 87.5717 5.27383 87.8745C5.01015 88.1674 4.67324 88.3139 4.26308 88.3139ZM12.0133 94.7446C11.9547 94.7446 11.9254 94.7885 11.9254 94.8764V102.962C11.9254 103.548 12.0523 104.007 12.3062 104.339C12.5699 104.671 12.902 104.837 13.3023 104.837C13.7027 104.837 14.0494 104.774 14.3424 104.647C14.6451 104.51 14.9039 104.364 15.1187 104.207C15.3434 104.051 15.5436 103.91 15.7193 103.783C15.8951 103.646 16.0514 103.578 16.1881 103.578C16.3248 103.578 16.3932 103.612 16.3932 103.68C16.3932 103.914 16.3687 104.066 16.3199 104.134C15.148 105.648 14.0152 106.405 12.9215 106.405C11.8375 106.405 11.0172 106.063 10.4605 105.379C9.91367 104.686 9.64023 103.861 9.64023 102.904V94.7446H8.5416C8.26816 94.7446 8.12168 94.6567 8.10215 94.4809C8.09238 94.3051 8.12168 94.1928 8.19004 94.144C8.70762 93.812 9.42051 93.2162 10.3287 92.3569C10.4264 92.2495 10.5582 92.0883 10.7242 91.8735C10.8902 91.6586 11.1295 91.3657 11.442 90.9946C11.7643 90.6235 12.0084 90.4379 12.1744 90.4379C12.3404 90.4379 12.4234 90.5063 12.4234 90.643C12.4234 90.6625 12.2574 91.3022 11.9254 92.562C11.9254 92.7377 12.0035 92.8305 12.1598 92.8403H15.8951C16.3248 92.8403 16.5396 93.4457 16.5396 94.6567C16.5396 94.7153 16.5006 94.7446 16.4225 94.7446H12.0133ZM36.0525 101.395L36.0232 98.3041C36.0232 97.0444 35.9158 96.1606 35.701 95.6528C35.4861 95.145 35.2127 94.7641 34.8807 94.5102C34.5486 94.2465 34.0994 94.1147 33.533 94.1147C32.9764 94.1147 31.7898 94.5541 29.9734 95.433C29.7293 95.5795 29.6023 95.7162 29.5926 95.8432V103.724C29.5926 104.71 30.1199 105.277 31.1746 105.423C31.6336 105.492 31.8631 105.604 31.8631 105.76C31.8631 105.907 31.8143 105.99 31.7166 106.009H25.1834C25.0857 105.99 25.0369 105.921 25.0369 105.804C25.0369 105.619 25.2664 105.492 25.7254 105.423C26.7801 105.277 27.3074 104.71 27.3074 103.724V96.4291C27.3074 94.8959 26.3602 94.1293 24.4656 94.1293C23.7723 94.1293 22.8104 94.5395 21.5799 95.3598C21.2674 95.5649 21.0379 95.7553 20.8914 95.9311V103.724C20.8914 104.71 21.4187 105.277 22.4734 105.423C22.9324 105.492 23.1619 105.604 23.1619 105.76C23.1619 105.907 23.1131 105.99 23.0154 106.009H16.4822C16.3846 105.99 16.3357 105.921 16.3357 105.804C16.3357 105.619 16.5652 105.492 17.0242 105.423C18.0789 105.277 18.6062 104.72 18.6062 103.753V95.3159C18.6062 94.9057 18.3816 94.6225 17.9324 94.4662C17.7371 94.3979 17.5271 94.3442 17.3025 94.3051C17.0779 94.2563 16.8973 94.2123 16.7605 94.1733C16.6336 94.1342 16.5506 94.1 16.5115 94.0707C16.4822 94.0317 16.4676 93.9584 16.4676 93.851C16.4676 93.7338 16.5408 93.6362 16.6873 93.558L20.4227 91.8002C20.5398 91.7416 20.6131 91.7123 20.6424 91.7123C20.8084 91.7123 20.8914 91.8295 20.8914 92.0639V94.4955C20.9012 94.5541 20.9354 94.5834 20.9939 94.5834C21.0623 94.5834 21.2234 94.5151 21.4773 94.3784C21.741 94.2416 22.0828 94.0512 22.5027 93.8071C22.9227 93.5532 23.4744 93.2602 24.158 92.9282C24.8514 92.5961 25.5838 92.4301 26.3553 92.4301C27.5955 92.4301 28.4842 92.9623 29.0213 94.0268C29.2264 94.4565 29.4119 94.642 29.5779 94.5834C29.7439 94.5151 30.0027 94.393 30.3543 94.2172C31.1844 93.8071 32.0242 93.4067 32.8738 93.0161C33.7234 92.6254 34.4266 92.4301 34.9832 92.4301C37.2391 92.4301 38.367 94.4858 38.367 98.5971L38.2352 102.874V103.724C38.2352 104.486 38.616 104.984 39.3777 105.218C39.7 105.326 40.0076 105.404 40.3006 105.453C40.6033 105.492 40.7986 105.531 40.8865 105.57C40.9842 105.609 41.033 105.687 41.033 105.804C41.033 105.921 40.9842 105.99 40.8865 106.009H33.826C33.7283 105.99 33.6795 105.921 33.6795 105.804C33.6795 105.619 33.909 105.492 34.368 105.423C35.4129 105.277 35.9354 104.671 35.9354 103.607C36.0135 103.119 36.0525 102.381 36.0525 101.395ZM40.917 106.009C40.8193 105.99 40.7705 105.921 40.7705 105.804C40.7705 105.628 41 105.511 41.459 105.453C42.5137 105.296 43.041 104.74 43.041 103.783V96.0336C43.041 95.6235 42.8164 95.3403 42.3672 95.184C42.1719 95.1157 41.9619 95.062 41.7373 95.0229C41.5127 94.9741 41.332 94.9301 41.1953 94.8911C41.0684 94.852 40.9854 94.8178 40.9463 94.7885C40.917 94.7495 40.9023 94.6762 40.9023 94.5688C40.9023 94.4516 40.9756 94.3539 41.1221 94.2758L44.8574 92.518C44.9746 92.4594 45.0479 92.4301 45.0771 92.4301C45.2432 92.4301 45.3262 92.5473 45.3262 92.7817V103.783C45.3262 104.74 45.8535 105.296 46.9082 105.453C47.3672 105.511 47.5967 105.614 47.5967 105.76C47.5967 105.907 47.5479 105.99 47.4502 106.009H40.917ZM43.9639 88.3139C43.5635 88.3139 43.207 88.187 42.8945 87.933C42.5918 87.6791 42.4404 87.3276 42.4404 86.8784C42.4404 86.4194 42.5869 86.058 42.8799 85.7944C43.1729 85.5307 43.5195 85.3989 43.9199 85.3989C44.3301 85.3989 44.6719 85.5551 44.9453 85.8676C45.2285 86.1801 45.3701 86.517 45.3701 86.8784C45.3701 87.2397 45.2383 87.5717 44.9746 87.8745C44.7109 88.1674 44.374 88.3139 43.9639 88.3139ZM58.9064 101.395L58.8771 98.3041C58.8771 97.0444 58.7697 96.1606 58.5549 95.6528C58.34 95.145 58.0666 94.7641 57.7346 94.5102C57.4025 94.2465 56.9533 94.1147 56.3869 94.1147C55.8303 94.1147 54.6437 94.5541 52.8273 95.433C52.5832 95.5795 52.4562 95.7162 52.4465 95.8432V103.724C52.4465 104.71 52.9738 105.277 54.0285 105.423C54.4875 105.492 54.717 105.604 54.717 105.76C54.717 105.907 54.6682 105.99 54.5705 106.009H48.0373C47.9396 105.99 47.8908 105.921 47.8908 105.804C47.8908 105.619 48.1203 105.492 48.5793 105.423C49.634 105.277 50.1613 104.71 50.1613 103.724V95.3159C50.1613 94.9057 49.9367 94.6225 49.4875 94.4662C49.2922 94.3979 49.0822 94.3442 48.8576 94.3051C48.633 94.2563 48.4523 94.2123 48.3156 94.1733C48.1887 94.1342 48.1057 94.1 48.0666 94.0707C48.0373 94.0317 48.0227 93.9584 48.0227 93.851C48.0227 93.7338 48.0959 93.6362 48.2424 93.558L51.9777 91.8002C52.0949 91.7416 52.1682 91.7123 52.1975 91.7123C52.3635 91.7123 52.4465 91.8295 52.4465 92.0639V94.3491C52.4758 94.4467 52.5148 94.4955 52.5637 94.4955C52.6223 94.4955 52.8322 94.4077 53.1936 94.2319C54.0334 93.812 54.8781 93.4067 55.7277 93.0161C56.5773 92.6254 57.2805 92.4301 57.8371 92.4301C60.093 92.4301 61.2209 94.4858 61.2209 98.5971L61.0891 102.874V103.724C61.0891 104.486 61.4699 104.984 62.2316 105.218C62.5539 105.326 62.8615 105.404 63.1545 105.453C63.4572 105.492 63.6525 105.531 63.7404 105.57C63.8381 105.609 63.8869 105.687 63.8869 105.804C63.8869 105.921 63.8381 105.99 63.7404 106.009H56.6799C56.5822 105.99 56.5334 105.921 56.5334 105.804C56.5334 105.619 56.7629 105.492 57.2219 105.423C58.2668 105.277 58.7893 104.671 58.7893 103.607C58.8674 103.119 58.9064 102.381 58.9064 101.395ZM73.058 103.592C73.058 103.846 73.1752 104.051 73.4096 104.207C73.6537 104.354 73.932 104.427 74.2445 104.427C74.557 104.427 74.8158 104.349 75.0209 104.193C75.2357 104.027 75.3822 103.944 75.4604 103.944C75.5385 103.944 75.5775 104.051 75.5775 104.266C75.5775 104.471 75.4799 104.647 75.2846 104.793C73.8197 105.868 72.8285 106.405 72.3109 106.405C71.6859 106.405 71.1781 105.755 70.7875 104.456C70.7582 104.359 70.7338 104.315 70.7143 104.325C69.5033 105.233 68.7416 105.78 68.4291 105.965C67.6283 106.424 66.8227 106.497 66.0121 106.185C65.2113 105.872 64.6303 105.355 64.2689 104.632C64.0932 104.261 64.0053 103.866 64.0053 103.446C64.0053 102.616 64.3129 101.956 64.9281 101.468C65.5434 100.98 66.7152 100.511 68.4437 100.062C69.0297 99.9057 69.5521 99.7055 70.0111 99.4614C70.4701 99.2172 70.7094 99.061 70.7289 98.9926C70.7582 98.9243 70.7729 98.8608 70.7729 98.8022V95.9897C70.7729 94.8862 70.3432 94.1098 69.4838 93.6606C69.2006 93.5141 68.8588 93.4409 68.4584 93.4409C68.0678 93.4409 67.6674 93.5971 67.2572 93.9096C66.8568 94.2221 66.6566 94.6664 66.6566 95.2426L66.7299 95.8139C66.6713 95.9311 66.3197 96.1264 65.6752 96.3998C65.0307 96.6733 64.6596 96.8198 64.5619 96.8393C64.4057 96.8393 64.3275 96.6537 64.3275 96.2827C64.3275 95.9018 64.4398 95.4819 64.6645 95.0229C64.8891 94.5639 65.2064 94.144 65.6166 93.7631C66.5736 92.8745 67.6674 92.4301 68.8979 92.4301C70.1283 92.4301 71.1293 92.7719 71.9008 93.4555C72.6723 94.1293 73.058 94.935 73.058 95.8725V103.592ZM66.3051 103.167C66.3051 103.636 66.4857 104.046 66.8471 104.398C67.2084 104.74 67.6186 104.911 68.0775 104.911C68.5463 104.911 69.1127 104.715 69.7768 104.325C70.4408 103.924 70.7729 103.514 70.7729 103.094V100.121C70.7729 100.013 70.7484 99.9594 70.6996 99.9594C70.6508 99.9594 70.6166 99.9643 70.5971 99.9741L67.1986 101.556C66.8471 101.81 66.6078 102.025 66.4809 102.201C66.3637 102.376 66.3051 102.699 66.3051 103.167ZM86.5357 101.395L86.5064 98.3041C86.5064 97.0444 86.399 96.1606 86.1842 95.6528C85.9693 95.145 85.6959 94.7641 85.3639 94.5102C85.0318 94.2465 84.5826 94.1147 84.0162 94.1147C83.4596 94.1147 82.273 94.5541 80.4566 95.433C80.2125 95.5795 80.0855 95.7162 80.0758 95.8432V103.724C80.0758 104.71 80.6031 105.277 81.6578 105.423C82.1168 105.492 82.3463 105.604 82.3463 105.76C82.3463 105.907 82.2975 105.99 82.1998 106.009H75.6666C75.5689 105.99 75.5201 105.921 75.5201 105.804C75.5201 105.619 75.7496 105.492 76.2086 105.423C77.2633 105.277 77.7906 104.71 77.7906 103.724V95.3159C77.7906 94.9057 77.566 94.6225 77.1168 94.4662C76.9215 94.3979 76.7115 94.3442 76.4869 94.3051C76.2623 94.2563 76.0816 94.2123 75.9449 94.1733C75.818 94.1342 75.735 94.1 75.6959 94.0707C75.6666 94.0317 75.652 93.9584 75.652 93.851C75.652 93.7338 75.7252 93.6362 75.8717 93.558L79.607 91.8002C79.7242 91.7416 79.7975 91.7123 79.8268 91.7123C79.9928 91.7123 80.0758 91.8295 80.0758 92.0639V94.3491C80.1051 94.4467 80.1441 94.4955 80.193 94.4955C80.2516 94.4955 80.4615 94.4077 80.8229 94.2319C81.6627 93.812 82.5074 93.4067 83.357 93.0161C84.2066 92.6254 84.9098 92.4301 85.4664 92.4301C87.7223 92.4301 88.8502 94.4858 88.8502 98.5971L88.7184 102.874V103.724C88.7184 104.486 89.0992 104.984 89.8609 105.218C90.1832 105.326 90.4908 105.404 90.7838 105.453C91.0865 105.492 91.2818 105.531 91.3697 105.57C91.4674 105.609 91.5162 105.687 91.5162 105.804C91.5162 105.921 91.4674 105.99 91.3697 106.009H84.3092C84.2115 105.99 84.1627 105.921 84.1627 105.804C84.1627 105.619 84.3922 105.492 84.8512 105.423C85.8961 105.277 86.4186 104.671 86.4186 103.607C86.4967 103.119 86.5357 102.381 86.5357 101.395Z" fill="#A41E16"/>
<path d="M24.0224 68.5592H19.9224L20.9974 69.5092V72.4342H16.1474C14.1474 72.4342 13.1474 72.9759 13.1474 74.0592C13.1474 74.5759 13.489 75.1259 14.1724 75.7092L19.2474 74.4342C20.1807 74.8009 20.9474 75.3425 21.5474 76.0592C22.1474 76.7592 22.4474 77.5342 22.4474 78.3842C22.4474 79.5675 21.914 80.5425 20.8474 81.3092C19.7807 82.0759 18.3974 82.4592 16.6974 82.4592L19.8474 85.5592L17.9474 87.0092L14.8724 82.1842C13.889 81.9342 13.039 81.5259 12.3224 80.9592L12.9974 78.1842H14.0724L15.7974 80.9842C17.164 80.9342 18.289 80.5925 19.1724 79.9592C20.0724 79.3259 20.5224 78.5675 20.5224 77.6842C20.5224 77.2842 20.4224 76.9009 20.2224 76.5342L16.0224 77.6592C14.8224 77.4925 13.7474 76.9342 12.7974 75.9842C11.8474 75.0342 11.3724 74.0759 11.3724 73.1092C11.3724 72.3592 11.689 71.7259 12.3224 71.2092C12.9724 70.6759 13.914 70.4092 15.1474 70.4092H19.0474V68.5592H10.0474L9.29736 67.3092L9.52236 66.8092H23.4974L24.2474 68.0592L24.0224 68.5592ZM21.7495 67.3092L21.9745 66.8092H33.0245L33.7745 68.0592L33.5495 68.5592H22.4995L21.7495 67.3092ZM33.3745 76.6342C32.7245 75.9842 32.0828 75.4842 31.4495 75.1342C30.8328 74.7842 30.1078 74.6092 29.2745 74.6092C28.2578 74.6092 27.4495 74.8759 26.8495 75.4092C26.2495 75.9259 25.9495 76.6092 25.9495 77.4592C25.9495 78.0759 26.1662 78.7592 26.5995 79.5092C27.0495 80.2425 27.8828 81.2009 29.0995 82.3842L28.1745 83.2592C26.7412 81.8925 25.6912 80.7175 25.0245 79.7342C24.3578 78.7342 24.0245 77.7259 24.0245 76.7092C24.0245 75.4592 24.4745 74.4509 25.3745 73.6842C26.2745 72.9175 27.4412 72.5342 28.8745 72.5342C31.0412 72.5342 32.9412 73.4425 34.5745 75.2592L33.3745 76.6342ZM45.9497 68.5592H42.0997L43.1747 69.5092V82.6592L42.5747 82.8342L41.0997 81.8842V76.6342H35.8747V79.0592L34.6747 79.5592C34.058 79.1759 33.3997 78.6092 32.6997 77.8592C32.0164 77.0925 31.533 76.3759 31.2497 75.7092L31.9247 74.7342H33.7247L33.4747 68.5592H29.8247L29.0747 67.3092L29.2997 66.8092H45.4247L46.1747 68.0592L45.9497 68.5592ZM41.0997 68.5592H34.4997L35.5747 69.5092L35.6997 74.7342H41.0997V68.5592ZM51.5253 68.5592H47.6753L48.7503 69.5092V82.6592L48.1503 82.8342L46.6753 81.8842V68.5592H44.4253L43.6753 67.3092L43.9003 66.8092H46.6753C45.492 63.0759 43.942 61.2092 42.0253 61.2092C41.342 61.2092 40.7836 61.4259 40.3503 61.8592C39.917 62.2925 39.7003 62.8009 39.7003 63.3842C39.7003 64.0509 39.9753 64.7842 40.5253 65.5842L39.8503 66.1092C38.4503 64.8759 37.7503 63.6425 37.7503 62.4092C37.7503 61.5425 38.0836 60.8009 38.7503 60.1842C39.4003 59.5675 40.2336 59.2592 41.2503 59.2592C42.7503 59.2592 44.1086 59.9425 45.3253 61.3092C46.5586 62.6759 47.4836 64.5092 48.1003 66.8092H51.0003L51.7503 68.0592L51.5253 68.5592ZM64.2177 68.5592H60.3677L61.4427 69.5092V82.6592L60.8427 82.8342L59.3677 81.8842V74.7342H54.8927V77.4342L53.6927 77.9092C52.5427 76.8259 51.6593 75.5259 51.0427 74.0092L52.0677 72.8342H59.3677V68.5592H49.9927L49.2427 67.3092L49.4677 66.8092H63.6927L64.4427 68.0592L64.2177 68.5592ZM69.789 68.5592H65.939L67.014 69.5092V82.6592L66.414 82.8342L64.939 81.8842V68.5592H62.689L61.939 67.3092L62.164 66.8092H69.264L70.014 68.0592L69.789 68.5592ZM82.4813 68.5592H78.6313L79.7063 69.5092V82.6592L79.1063 82.8342L77.6313 81.8842V74.7342H73.1563V77.4342L71.9563 77.9092C70.8063 76.8259 69.923 75.5259 69.3063 74.0092L70.3313 72.8342H77.6313V68.5592H68.2563L67.5063 67.3092L67.7313 66.8092H81.9563L82.7063 68.0592L82.4813 68.5592Z" fill="#A41E16"/>
</svg>
