<svg width="66" height="66" viewBox="0 0 66 66" fill="none" xmlns="http://www.w3.org/2000/svg">
<circle cx="33" cy="33" r="33" fill="black"/>
<path d="M46.5 32.25C46.5052 34.2298 46.0426 36.1829 45.15 37.95C44.0916 40.0677 42.4646 41.8488 40.4512 43.094C38.4377 44.3391 36.1174 44.9991 33.75 45C31.7702 45.0052 29.8172 44.5426 28.05 43.65L19.5 46.5L22.35 37.95C21.4574 36.1829 20.9948 34.2298 21 32.25C21.0009 29.8827 21.6609 27.5623 22.9061 25.5489C24.1512 23.5354 25.9324 21.9084 28.05 20.85C29.8172 19.9574 31.7702 19.4949 33.75 19.5H34.5C37.6265 19.6725 40.5796 20.9922 42.7937 23.2063C45.0079 25.4205 46.3275 28.3735 46.5 31.5V32.25Z" stroke="white" stroke-width="3" stroke-linecap="round" stroke-linejoin="round"/>
</svg>
