<svg xmlns="http://www.w3.org/2000/svg" width="66" height="66" fill="none" viewBox="0 0 66 66"><circle cx="33" cy="33" r="33" fill="#000"/><path stroke="#fff" stroke-linecap="round" stroke-linejoin="round" stroke-width="3" d="M39.5455 44.4545V42C39.5455 40.698 39.0067 39.4494 38.0477 38.5287C37.0887 37.6081 35.788 37.0909 34.4318 37.0909H24.2045C22.8483 37.0909 21.5477 37.6081 20.5887 38.5287C19.6297 39.4494 19.0909 40.698 19.0909 42V44.4545"/><path stroke="#fff" stroke-linecap="round" stroke-linejoin="round" stroke-width="3" d="M29.3182 31.3637C32.2553 31.3637 34.6364 29.1658 34.6364 26.4546C34.6364 23.7433 32.2553 21.5455 29.3182 21.5455C26.381 21.5455 24 23.7433 24 26.4546C24 29.1658 26.381 31.3637 29.3182 31.3637Z"/><path stroke="#fff" stroke-linecap="round" stroke-linejoin="round" stroke-width="3" d="M46.9091 44.4545V41.9456C46.9082 40.8338 46.5059 39.7538 45.7655 38.8751C45.0251 37.9964 43.9884 37.3688 42.8182 37.0909"/><path stroke="#fff" stroke-linecap="round" stroke-linejoin="round" stroke-width="3" d="M37.9091 21.5455C39.0793 21.8246 40.1166 22.4585 40.8573 23.3473C41.598 24.2362 42 25.3294 42 26.4546C42 27.5798 41.598 28.6729 40.8573 29.5618C40.1166 30.4506 39.0793 31.0846 37.9091 31.3637"/></svg>